<svg class="icon" viewBox="0 0 1024 1024" xmlns="http://www.w3.org/2000/svg" width="32" height="32" data-spm-anchor-id="a313x.search_index.0.i3.173e3a81HD3uP1"><path d="M33.792 631.808c0 84.992 214.016 153.6 478.208 153.6 263.168 0 477.184-68.608 478.208-153.6V509.952C891.904 580.608 701.44 614.4 512 614.4c-189.44 0-379.904-33.792-478.208-105.472v122.88z" data-spm-anchor-id="a313x.search_index.0.i4.173e3a81HD3uP1" class="selected"/><path d="M990.208 747.52C891.904 819.2 701.44 852.992 512 852.992c-189.44 0-379.904-33.792-478.208-105.472v139.264C60.416 964.608 266.24 1024 512 1024s451.584-59.392 478.208-136.192V747.52zM33.792 392.192c0 84.992 214.016 153.6 478.208 153.6 263.168 0 477.184-68.608 478.208-153.6V270.336C891.904 342.016 701.44 375.808 512 375.808c-189.44 0-379.904-33.792-478.208-105.472v121.856z"/><path d="M33.792 153.6a478.208 153.6 0 1 0 956.416 0 478.208 153.6 0 1 0-956.416 0z"/></svg>