<svg class="icon" viewBox="0 0 1024 1024" xmlns="http://www.w3.org/2000/svg"><path d="M828.952 121.905a73.143 73.143 0 0 1 73.143 73.143v633.904a73.143 73.143 0 0 1-73.143 73.143H195.048a73.143 73.143 0 0 1-73.143-73.143V195.048a73.143 73.143 0 0 1 73.143-73.143h633.904zm-512 597.333H195.048v109.714h121.904V719.238zm512 0H390.095v109.714h438.857V719.238zm-512-182.857H195.048v109.714h121.904V536.381zm512 0H390.095v109.714h438.857V536.381zM195.048 353.524v109.714h121.904V353.524H195.048zm633.904-158.476H195.048v85.333h633.904v-85.333zm-438.857 268.19h438.857V353.524H390.095v109.714z"/></svg>