<?xml version="1.0" standalone="no"?><!DOCTYPE svg PUBLIC "-//W3C//DTD SVG 1.1//EN" "http://www.w3.org/Graphics/SVG/1.1/DTD/svg11.dtd"><svg t="1766156998053" class="icon" viewBox="0 0 1024 1024" version="1.1" xmlns="http://www.w3.org/2000/svg" p-id="6923" xmlns:xlink="http://www.w3.org/1999/xlink" width="32" height="32"><path d="M512 512m-405.333333 0a405.333333 405.333333 0 1 0 810.666666 0 405.333333 405.333333 0 1 0-810.666666 0Z" fill="#039BE5" p-id="6924"></path><path d="M512 512m-320 0a320 320 0 1 0 640 0 320 320 0 1 0-640 0Z" fill="#FFFFFF" p-id="6925"></path><path d="M533.333333 512h-42.666666v-193.706667a21.333333 21.333333 0 0 1 21.333333-21.333333 21.333333 21.333333 0 0 1 21.333333 21.333333z" fill="#37474F" p-id="6926"></path><path d="M496.853333 496.853333l30.293334 30.293334-106.666667 106.666666a21.333333 21.333333 0 0 1-30.293333 0 21.333333 21.333333 0 0 1 0-30.293333z" fill="#37474F" p-id="6927"></path><path d="M512 512m-42.666667 0a42.666667 42.666667 0 1 0 85.333334 0 42.666667 42.666667 0 1 0-85.333334 0Z" fill="#37474F" p-id="6928"></path><path d="M512 512m-21.333333 0a21.333333 21.333333 0 1 0 42.666666 0 21.333333 21.333333 0 1 0-42.666666 0Z" fill="#039BE5" p-id="6929"></path><path d="M512 256m-21.333333 0a21.333333 21.333333 0 1 0 42.666666 0 21.333333 21.333333 0 1 0-42.666666 0Z" fill="#37474F" p-id="6930"></path><path d="M512 768m-21.333333 0a21.333333 21.333333 0 1 0 42.666666 0 21.333333 21.333333 0 1 0-42.666666 0Z" fill="#37474F" p-id="6931"></path><path d="M768 512m-21.333333 0a21.333333 21.333333 0 1 0 42.666666 0 21.333333 21.333333 0 1 0-42.666666 0Z" fill="#37474F" p-id="6932"></path><path d="M256 512m-21.333333 0a21.333333 21.333333 0 1 0 42.666666 0 21.333333 21.333333 0 1 0-42.666666 0Z" fill="#37474F" p-id="6933"></path><path d="M290.346667 384m-10.666667 0a10.666667 10.666667 0 1 0 21.333333 0 10.666667 10.666667 0 1 0-21.333333 0Z" fill="#35495D" p-id="6934"></path><path d="M733.653333 640m-10.666666 0a10.666667 10.666667 0 1 0 21.333333 0 10.666667 10.666667 0 1 0-21.333333 0Z" fill="#35495D" p-id="6935"></path><path d="M640 290.346667m-10.666667 0a10.666667 10.666667 0 1 0 21.333334 0 10.666667 10.666667 0 1 0-21.333334 0Z" fill="#35495D" p-id="6936"></path><path d="M384 733.653333m-10.666667 0a10.666667 10.666667 0 1 0 21.333334 0 10.666667 10.666667 0 1 0-21.333334 0Z" fill="#35495D" p-id="6937"></path><path d="M290.346667 640m-10.666667 0a10.666667 10.666667 0 1 0 21.333333 0 10.666667 10.666667 0 1 0-21.333333 0Z" fill="#35495D" p-id="6938"></path><path d="M733.653333 384m-10.666666 0a10.666667 10.666667 0 1 0 21.333333 0 10.666667 10.666667 0 1 0-21.333333 0Z" fill="#35495D" p-id="6939"></path><path d="M384 290.346667m-10.666667 0a10.666667 10.666667 0 1 0 21.333334 0 10.666667 10.666667 0 1 0-21.333334 0Z" fill="#35495D" p-id="6940"></path><path d="M640 733.653333m-10.666667 0a10.666667 10.666667 0 1 0 21.333334 0 10.666667 10.666667 0 1 0-21.333334 0Z" fill="#35495D" p-id="6941"></path></svg>