<svg width="16" height="16" viewBox="0 0 16 16" fill="none" xmlns="http://www.w3.org/2000/svg">
  <path
    d="M8 0C3.58 0 0 3.58 0 8C0 11.54 2.29 14.53 5.47 15.59C5.87 15.66 6.02 15.42 6.02 15.21C6.02 15.02 6.01 14.38 6.01 13.71C4.01 14.08 3.49 13.22 3.33 12.77C3.24 12.54 2.85 11.95 2.5 11.76C2.22 11.61 1.82 11.24 2.49 11.23C3.12 11.22 3.57 11.81 3.72 12.05C4.44 13.26 5.59 12.92 6.05 12.71C6.12 12.19 6.33 11.84 6.57 11.64C4.79 11.44 2.93 10.75 2.93 7.69C2.93 6.82 3.24 6.1 3.75 5.54C3.67 5.34 3.4 4.52 3.83 3.42C3.83 3.42 4.5 3.21 6.03 4.24C6.76 4.04 7.53 3.94 8.3 3.94C9.07 3.94 9.84 4.04 10.57 4.24C12.1 3.2 12.77 3.42 12.77 3.42C13.2 4.52 12.93 5.34 12.85 5.54C13.36 6.1 13.67 6.81 13.67 7.69C13.67 10.76 11.8 11.44 10.02 11.64C10.31 11.89 10.56 12.37 10.56 13.12C10.56 14.19 10.55 15.05 10.55 15.32C10.55 15.53 10.7 15.78 11.1 15.7C14.27 14.64 16 11.54 16 8C16 3.58 12.42 0 8 0Z"
    fill="currentColor"
  />
</svg>
