<?xml version="1.0" standalone="no"?><!DOCTYPE svg PUBLIC "-//W3C//DTD SVG 1.1//EN" "http://www.w3.org/Graphics/SVG/1.1/DTD/svg11.dtd"><svg t="1766157234081" class="icon" viewBox="0 0 1024 1024" version="1.1" xmlns="http://www.w3.org/2000/svg" p-id="21603" xmlns:xlink="http://www.w3.org/1999/xlink" width="32" height="32"><path d="M625.3 593.7H397.4c-7.4 0-13.3-6-13.3-13.3s6-13.3 13.3-13.3h227.9c7.4 0 13.3 6 13.3 13.3s-6 13.3-13.3 13.3z" fill="#144884" p-id="21604"></path><path d="M267.6 843.7h-38.5c-94.8 0-175.5-69.2-189.9-162.9l2.6-39.8c3.8-58.4 52.3-103.8 110.7-103.8H380c65.7 0 109.2 62.6 93.3 126.3-22.7 91.1-125.7 180.2-205.7 180.2z" fill="#9BCFDD" p-id="21605"></path><path d="M267.6 857h-38.5c-49.1 0-96.6-17.6-133.8-49.5-37.2-32-61.8-76.3-69.3-124.7-0.1-1-0.2-1.9-0.1-2.9l2.6-39.8c2.1-31.6 15.9-61 39.1-82.6 23.1-21.7 53.3-33.6 85-33.6H380c33.8 0 65 15.1 85.6 41.5 22.1 28.3 29.7 65.3 20.7 101.4-11.4 45.9-42.6 93.6-85.5 131.1-43.2 37.5-91.7 59.1-133.2 59.1z m-215-176.9c6.7 41.6 28 79.6 60.1 107.1 32.4 27.8 73.7 43.1 116.4 43.1h38.5c74.5 0 171.8-85.8 192.7-170 7-28.1 1.2-56.7-15.8-78.5-15.8-20.2-38.7-31.3-64.6-31.3H152.5c-51.3 0-94.1 40.1-97.4 91.3l-2.5 38.3z" fill="#154B8B" p-id="21606"></path><path d="M755 843.7h38.5c94.8 0 175.5-69.2 189.9-162.9l-2.6-39.8c-3.8-58.4-52.3-103.8-110.7-103.8H642.6c-65.7 0-109.2 62.6-93.3 126.3C572 754.6 675.1 843.7 755 843.7z" fill="#9BCFDD" p-id="21607"></path><path d="M793.6 857H755c-41.4 0-89.9-21.6-133.1-59.2-42.9-37.5-74.1-85.2-85.5-131.1-9-36.1-1.5-73.1 20.7-101.4 20.6-26.4 51.8-41.5 85.6-41.5h227.5c31.7 0 61.9 11.9 85 33.6 23.1 21.7 37 51 39.1 82.6l2.6 39.8c0.1 1 0 1.9-0.1 2.9-7.5 48.5-32.1 92.8-69.3 124.7-37.4 32-84.9 49.6-133.9 49.6z m-151-306.5c-25.9 0-48.8 11.1-64.5 31.3-17 21.8-22.8 50.4-15.8 78.5 21 84.2 118.3 170 192.7 170h38.5c42.7 0 84-15.3 116.4-43.1 32-27.5 53.3-65.5 60.1-107.1l-2.5-38.3c-3.3-51.2-46.1-91.3-97.4-91.3H642.6z" fill="#154B8B" p-id="21608"></path><path d="M65.3 593.7c-1.9 0-3.8-0.4-5.6-1.2-6.7-3.1-9.6-11-6.5-17.7l193.2-416.5c1-2.1 2.5-3.9 4.4-5.3 2.5-1.8 25.2-17.1 45.5-6 16.2 8.9 23.3 30 21.6 64.7-0.4 7.4-6.6 13-14 12.7-7.4-0.4-13-6.6-12.7-14 1.2-25.7-3.4-37.6-7.8-40-3.5-1.9-10.1 0.4-14.6 2.8L77.4 586c-2.2 4.9-7.1 7.7-12.1 7.7zM957.4 593.7c-5 0-9.9-2.9-12.1-7.7L753.8 173.2c-4.5-2.4-11.1-4.7-14.5-2.8-4.3 2.4-9 14.3-7.8 40 0.4 7.4-5.3 13.6-12.7 14-7.3 0.3-13.6-5.3-14-12.7-1.6-34.7 5.4-55.8 21.6-64.7 20.2-11.1 42.9 4.2 45.5 6 1.9 1.3 3.4 3.2 4.4 5.3l193.2 416.5c3.1 6.7 0.2 14.6-6.5 17.7-1.8 0.8-3.8 1.2-5.6 1.2z" fill="#154B8B" p-id="21609"></path></svg>