<svg width="20" height="20" viewBox="0 0 20 20" fill="none" xmlns="http://www.w3.org/2000/svg">
  <ellipse cx="10" cy="4.5" rx="7" ry="2.5" fill="currentColor" opacity="0.9"/>
  <path d="M3 4.5V11.5C3 12.8807 6.13401 14 10 14C13.866 14 17 12.8807 17 11.5V4.5" fill="currentColor" opacity="0.75"/>
  <ellipse cx="10" cy="11.5" rx="7" ry="2.5" fill="currentColor" opacity="0.9"/>
  <rect x="5" y="12.8" width="10" height="4.2" rx="2.1" fill="currentColor"/>
  <path d="M7 15.8V13.8H9.3C10.2 13.8 10.8 14.2 10.8 15.1C10.8 15.95 10.2 16.3 9.3 16.3H8V15.8H7ZM8 15.5H9.2C9.6 15.5 9.8 15.4 9.8 15.1C9.8 14.8 9.6 14.6 9.2 14.6H8V15.5Z" fill="white"/>
  <path d="M11.6 16.3V13.8H14.2V14.6H12.6V14.9H13.9V15.7H12.6V16.3H11.6Z" fill="white"/>
</svg>
